# xmcd CD database file
#
# Track frame offsets:
#	150
#	22435
#	34902
#	57925
#	73787
#	92850
#	109190
#	126885
#	142045
#	159145
#	184857
#	199920
#	214430
#	230230
#	250290
#
# Disc length: 3519 seconds
#
# Revision: 0
# Processed by: cddbd v1.5.1PL0 Copyright (c) Steve Scherf et al.
# Submitted via: CDex 1.51
#
DISCID=ef0dbd0f
DTITLE=RINO LATINA? - Carnival of Rino
DYEAR=1900
DGENRE=未分類 (日本)
TTITLE0=東京鉄コン筋クリートジャングル
TTITLE1=R.L.II
TTITLE2=animal f@ck
TTITLE3=ROOM 1834
TTITLE4=七龍珠（DOUBLE VOLENTE SYSTEM）feat. UZI
TTITLE5=病む街　Part2　第三章 feat. MURO, TWIGY
TTITLE6=HIP HOP 2ZERO01 feat. SOUL SCREAM
TTITLE7=スーパーヒーロー
TTITLE8=629（P.G.N.F）
TTITLE9=はじける一夜
TTITLE10=MC.G.P from 01 to 02
TTITLE11=夕陽のタンガンマン（44口径MIX）
TTITLE12=kaminari
TTITLE13=NEXT MOVIE feat. YOU THE ROCK★ and G.K.MARYAN
TTITLE14=七龍珠（3 BACK SYSTEM) feat. UZI 9mm, D.O
EXTD=
EXTT0=
EXTT1=
EXTT2=
EXTT3=
EXTT4=
EXTT5=
EXTT6=
EXTT7=
EXTT8=
EXTT9=
EXTT10=
EXTT11=
EXTT12=
EXTT13=
EXTT14=
PLAYORDER=
